<svg width="362" height="150" viewBox="0 0 362 150" fill="none" xmlns="http://www.w3.org/2000/svg">
<path d="M21 4L24.3677 14.3647H35.2658L26.4491 20.7705L29.8168 31.1353L21 24.7295L12.1832 31.1353L15.5509 20.7705L6.73415 14.3647H17.6323L21 4Z" fill="#D9D9D9"/>
<path d="M112 0L115.368 10.3647H126.266L117.449 16.7705L120.817 27.1353L112 20.7295L103.183 27.1353L106.551 16.7705L97.7342 10.3647H108.632L112 0Z" fill="#D9D9D9"/>
<path d="M123 105L126.368 115.365H137.266L128.449 121.771L131.817 132.135L123 125.729L114.183 132.135L117.551 121.771L108.734 115.365H119.632L123 105Z" fill="#D9D9D9"/>
<path d="M219 98L222.368 108.365H233.266L224.449 114.771L227.817 125.135L219 118.729L210.183 125.135L213.551 114.771L204.734 108.365H215.632L219 98Z" fill="#D9D9D9"/>
<path d="M213 15L216.368 25.3647H227.266L218.449 31.7705L221.817 42.1353L213 35.7295L204.183 42.1353L207.551 31.7705L198.734 25.3647H209.632L213 15Z" fill="#D9D9D9"/>
<path d="M342 45L345.368 55.3647H356.266L347.449 61.7705L350.817 72.1353L342 65.7295L333.183 72.1353L336.551 61.7705L327.734 55.3647H338.632L342 45Z" fill="#D9D9D9"/>
<path d="M97 75L100.368 85.3647H111.266L102.449 91.7705L105.817 102.135L97 95.7295L88.1832 102.135L91.5509 91.7705L82.7342 85.3647H93.6323L97 75Z" fill="#D9D9D9"/>
<path d="M15 68L18.3677 78.3647H29.2658L20.4491 84.7705L23.8168 95.1353L15 88.7295L6.18322 95.1353L9.55093 84.7705L0.734152 78.3647H11.6323L15 68Z" fill="#D9D9D9"/>
<path d="M281 43L284.368 53.3647H295.266L286.449 59.7705L289.817 70.1353L281 63.7295L272.183 70.1353L275.551 59.7705L266.734 53.3647H277.632L281 43Z" fill="#D9D9D9"/>
<path d="M277 120L280.368 130.365H291.266L282.449 136.771L285.817 147.135L277 140.729L268.183 147.135L271.551 136.771L262.734 130.365H273.632L277 120Z" fill="#D9D9D9"/>
<path d="M347 120L350.368 130.365H361.266L352.449 136.771L355.817 147.135L347 140.729L338.183 147.135L341.551 136.771L332.734 130.365H343.632L347 120Z" fill="#D9D9D9"/>
</svg>
